<?xml version="1.0" encoding="utf-8"?>
<!-- Generator: Adobe Illustrator 22.1.0, SVG Export Plug-In . SVG Version: 6.00 Build 0)  -->
<svg version="1.1" id="LOGO" xmlns="http://www.w3.org/2000/svg" xmlns:xlink="http://www.w3.org/1999/xlink" x="0px" y="0px"
	 viewBox="0 0 238.2 32" style="enable-background:new 0 0 238.2 32;" xml:space="preserve">
<style type="text/css">
	.st0{fill:#D9D9D9;}
	.st1{fill:#9E625F;}
	.st2{fill:#FFFFFF;}
</style>
<title>logo-libros-negro</title>
<path id="_Trazado_compuesto_" class="st0" d="M0,8.4h6.1l0.6,1.8C7.5,9.6,8.4,9,9.4,8.7c0.9-0.3,1.9-0.5,2.9-0.5
	c0.7,0,1.4,0.2,2.1,0.5c0.6,0.4,1.2,0.9,1.5,1.6c0.4-0.3,0.8-0.6,1.3-0.8c0.5-0.3,0.9-0.5,1.4-0.7c0.5-0.2,1-0.4,1.5-0.5
	c0.5-0.1,1.1-0.2,1.6-0.2c0.6,0,1.1,0.1,1.6,0.3c0.5,0.2,1,0.5,1.3,0.9c0.4,0.5,0.7,1,0.9,1.6c0.2,0.7,0.3,1.5,0.3,2.3V21H19v-8.2
	c0-0.4-0.1-0.7-0.3-1c-0.2-0.2-0.5-0.3-0.9-0.3c-0.2,0-0.4,0-0.7,0.1c-0.3,0.1-0.5,0.2-0.8,0.4v9H9.6v-8.2c0-0.4-0.1-0.7-0.3-1
	c-0.2-0.2-0.5-0.3-0.8-0.3c-0.3,0-0.6,0.1-0.8,0.2c-0.3,0.1-0.5,0.3-0.8,0.5V21H0V8.4z"/>
<path id="_Trazado_" class="st1" d="M31.5,6.3c-0.5,0-1.1-0.1-1.6-0.2c-0.4-0.1-0.8-0.3-1.1-0.6c-0.3-0.2-0.5-0.5-0.6-0.8
	c-0.3-0.7-0.3-1.4,0-2.1c0.1-0.3,0.4-0.6,0.6-0.9c0.3-0.3,0.7-0.5,1.1-0.6c1.1-0.3,2.2-0.3,3.2,0c0.4,0.1,0.8,0.3,1.1,0.6
	c0.3,0.2,0.5,0.5,0.6,0.8c0.3,0.7,0.3,1.4,0,2.1c-0.1,0.3-0.4,0.6-0.6,0.8c-0.3,0.3-0.7,0.4-1.1,0.6C32.6,6.2,32.1,6.3,31.5,6.3z"/>
<rect id="_Trazado_2" x="28.1" y="8.4" class="st0" width="6.9" height="12.6"/>
<path id="_Trazado_compuesto_2" class="st0" d="M37,19.8c0-0.7,0.2-1.3,0.5-1.9c0.3-0.6,0.8-1.2,1.3-1.6c-0.7-0.4-1.3-0.9-1.8-1.6
	c-0.4-0.6-0.6-1.3-0.6-2.1c0-0.7,0.2-1.3,0.6-1.9c0.4-0.6,1-1.1,1.6-1.4c0.8-0.4,1.7-0.7,2.6-0.9c1.2-0.2,2.4-0.4,3.6-0.3
	c0.4,0,0.9,0,1.3,0V6.5c0-0.5,0.1-1.1,0.2-1.6C46.5,4.5,46.7,4,47,3.7c0.3-0.4,0.7-0.6,1.2-0.8c0.5-0.2,1.1-0.3,1.7-0.3
	c0.5,0,1.1,0.1,1.6,0.3c0.4,0.1,0.8,0.4,1.2,0.7c0.3,0.3,0.6,0.6,0.7,1c0.2,0.4,0.3,0.8,0.3,1.2c0,0.4-0.1,0.8-0.2,1.1
	c-0.1,0.3-0.3,0.6-0.6,0.9c-0.2,0.2-0.5,0.4-0.8,0.6c-0.3,0.1-0.5,0.2-0.8,0.2l-3-4l0,0v4c1.3,0.2,2.5,0.7,3.6,1.6
	c0.8,0.7,1.3,1.7,1.3,2.7c0,0.7-0.2,1.4-0.6,2c-0.4,0.6-1,1.1-1.6,1.5c-0.8,0.5-1.7,0.8-2.6,1c-1.2,0.2-2.3,0.4-3.5,0.3
	c-0.9,0-1.7-0.1-2.6-0.2c-0.7-0.1-1.4-0.3-2.1-0.5c-0.1,0.2-0.1,0.4-0.1,0.6c0,0.2,0.1,0.4,0.2,0.6c0.2,0.2,0.4,0.4,0.7,0.4
	c0.5,0.1,1,0.2,1.4,0.3c0.6,0,1.5,0.1,2.5,0.1H48c0.9,0,1.7,0.1,2.6,0.3c0.6,0.2,1.2,0.4,1.8,0.8c0.4,0.3,0.8,0.7,1,1.2
	c0.5,1.1,0.4,2.3-0.2,3.3c-0.4,0.6-1,1.1-1.6,1.5c-0.9,0.5-1.8,0.8-2.7,1c-1.3,0.2-2.6,0.4-3.9,0.3c-0.8,0-1.7,0-2.5-0.1
	c-0.8-0.1-1.5-0.2-2.2-0.4c-0.6-0.1-1.3-0.3-1.9-0.5c-0.5-0.2-1-0.4-1.5-0.6l1-1.9c0.5,0.2,1.1,0.4,1.6,0.6c0.5,0.2,1.1,0.3,1.6,0.4
	c0.6,0.1,1.1,0.2,1.7,0.2c0.6,0,1.2,0.1,1.8,0.1c0.6,0,1.1,0,1.7-0.1c0.3,0,0.7-0.1,1-0.2c0.2-0.1,0.3-0.2,0.5-0.3
	c0.1-0.1,0.1-0.2,0.1-0.4c0-0.2-0.1-0.4-0.4-0.5c-0.4-0.2-0.8-0.2-1.2-0.2h-4c-0.8,0-1.6-0.1-2.4-0.3c-0.6-0.1-1.2-0.4-1.7-0.7
	C37.4,21.8,36.9,20.9,37,19.8z M44.8,15.2c0.2,0,0.4,0,0.5-0.1c0.2-0.1,0.3-0.2,0.4-0.4c0.1-0.2,0.2-0.5,0.2-0.8
	c0.1-0.4,0.1-0.8,0.1-1.2c0-0.4,0-0.7-0.1-1.1c0-0.2-0.1-0.5-0.2-0.7c-0.1-0.2-0.2-0.3-0.4-0.4c-0.3-0.1-0.7-0.1-1.1,0
	c-0.2,0.1-0.3,0.2-0.4,0.4c-0.1,0.2-0.2,0.5-0.2,0.7c-0.1,0.4-0.1,0.8-0.1,1.1c0,0.4,0,0.8,0.1,1.2c0,0.3,0.1,0.5,0.2,0.8
	c0.1,0.2,0.2,0.3,0.4,0.4C44.4,15.2,44.6,15.2,44.8,15.2z"/>
<path id="_Trazado_compuesto_3" class="st0" d="M54.6,8.4h6.9v7.7c0,0.3,0,0.6,0.1,0.8c0,0.2,0.1,0.4,0.3,0.6
	c0.1,0.1,0.3,0.2,0.4,0.3c0.2,0.1,0.4,0.1,0.6,0.1c0.3,0,0.5,0,0.8-0.2c0.3-0.1,0.5-0.3,0.7-0.5V8.4h6.9V21h-6.1l-0.6-1.8
	c-0.7,0.7-1.6,1.3-2.5,1.6c-0.9,0.3-1.8,0.5-2.7,0.5c-1.3,0.1-2.6-0.4-3.6-1.2c-0.9-1-1.4-2.4-1.3-3.8L54.6,8.4L54.6,8.4z"/>
<path id="_Trazado_compuesto_4" class="st0" d="M72.8,14.6c0-1.3,0.4-2.6,1.3-3.6c0.4-0.5,0.9-0.9,1.4-1.3c0.6-0.4,1.2-0.7,1.8-0.9
	c0.6-0.2,1.3-0.4,2-0.5c0.7-0.1,1.4-0.2,2.1-0.2c0.9,0,1.7,0.1,2.6,0.3c0.7,0.2,1.4,0.4,2.1,0.8c1.1,0.6,2,1.5,2.7,2.5
	c0.3,0.5,0.5,1,0.6,1.5c0.2,0.5,0.2,1,0.3,1.6L80.1,16c0.1,0.8,0.5,1.6,1.1,2.2c0.7,0.5,1.5,0.8,2.4,0.8c0.5,0,1-0.1,1.5-0.2
	c0.4-0.1,0.8-0.3,1.1-0.5l1,1.8c-0.3,0.2-0.7,0.3-1,0.5c-0.4,0.2-0.8,0.3-1.2,0.4c-0.5,0.1-1,0.2-1.5,0.3c-0.6,0.1-1.2,0.1-1.8,0.1
	c-1.4,0-2.7-0.2-4-0.5c-1-0.3-1.9-0.8-2.8-1.4c-0.7-0.6-1.3-1.3-1.6-2.1C73,16.3,72.8,15.5,72.8,14.6z M83.5,13.5
	c0.1-0.8-0.1-1.6-0.4-2.4c-0.2-0.5-0.7-0.8-1.2-0.8c-0.3,0-0.5,0.1-0.8,0.2c-0.3,0.2-0.5,0.4-0.6,0.6c-0.2,0.3-0.3,0.7-0.4,1.1
	c-0.1,0.5-0.2,1.1-0.2,1.6L83.5,13.5z"/>
<path id="_Trazado_compuesto_5" class="st0" d="M90.8,0h6.9v21h-6.9C90.8,21,90.8,0,90.8,0z"/>
<path id="_Trazado_compuesto_6" class="st2" d="M99.5,0h6.9v9.9c0.3-0.2,0.5-0.5,0.8-0.7c0.7-0.5,1.5-0.8,2.4-1
	c0.5-0.1,0.9-0.2,1.4-0.2c0.9,0,1.8,0.1,2.7,0.4c0.8,0.3,1.6,0.7,2.2,1.2c0.6,0.6,1.1,1.2,1.5,2c0.4,0.9,0.6,1.9,0.5,2.8
	c0,0.9-0.2,1.8-0.5,2.7c-0.3,0.8-0.8,1.5-1.5,2.1c-0.7,0.6-1.5,1-2.3,1.3c-1,0.3-2,0.5-3.1,0.5c-0.8,0-1.7-0.1-2.5-0.3
	c-0.7-0.2-1.3-0.5-1.9-0.9l-0.4,1h-6.3L99.5,0L99.5,0z M106.4,18.4c0.2,0.2,0.4,0.3,0.7,0.4c0.2,0.1,0.5,0.1,0.8,0.2
	c0.4,0,0.8-0.1,1.2-0.2c0.4-0.2,0.7-0.4,0.9-0.7c0.3-0.4,0.5-0.8,0.6-1.3c0.2-0.6,0.2-1.2,0.2-1.8c0-0.6-0.1-1.3-0.2-1.9
	c-0.1-0.5-0.3-0.9-0.6-1.3c-0.2-0.3-0.5-0.6-0.9-0.7c-0.4-0.2-0.7-0.2-1.1-0.2c-0.3,0-0.6,0.1-0.9,0.2c-0.3,0.1-0.5,0.2-0.8,0.4
	L106.4,18.4L106.4,18.4z"/>
<path id="_Trazado_compuesto_7" class="st2" d="M118.5,17c0-0.6,0.1-1.2,0.4-1.7c0.3-0.5,0.7-1,1.2-1.4c0.6-0.4,1.2-0.7,1.8-0.9
	c0.8-0.2,1.6-0.3,2.4-0.3c0.8,0,1.7,0.1,2.5,0.3c0.7,0.2,1.3,0.4,1.9,0.8v-0.1c0-0.5-0.1-1-0.2-1.5c-0.2-0.8-0.8-1.4-1.6-1.6
	c-0.5-0.1-1-0.2-1.5-0.2c-0.5,0-1.1,0-1.6,0.1c-0.5,0.1-1,0.2-1.5,0.4l-0.9-1.7c0.9-0.4,1.9-0.7,2.9-0.8c1-0.2,2-0.3,3.1-0.3
	c1.2,0,2.4,0.1,3.6,0.4c0.9,0.2,1.8,0.6,2.6,1.2c0.7,0.5,1.2,1.2,1.6,1.9c0.4,0.9,0.6,1.8,0.5,2.7V21h-6.4l-0.5-1.2
	c-0.3,0.2-0.6,0.4-0.9,0.6c-0.4,0.2-0.7,0.3-1.1,0.5c-0.4,0.1-0.9,0.2-1.3,0.3c-0.5,0.1-1,0.1-1.5,0.1c-0.7,0-1.5-0.1-2.2-0.4
	c-0.6-0.2-1.2-0.5-1.7-0.9c-0.5-0.4-0.8-0.8-1.1-1.3C118.7,18.1,118.5,17.6,118.5,17z M125.6,16.7c0,0.4,0.1,0.8,0.4,1.1
	c0.3,0.3,0.8,0.5,1.2,0.4c0.3,0,0.5,0,0.8-0.1c0.3-0.1,0.5-0.2,0.7-0.4v-2.2c-0.4-0.3-0.9-0.4-1.4-0.4c-0.5,0-0.9,0.1-1.3,0.4
	C125.8,15.9,125.6,16.3,125.6,16.7L125.6,16.7z"/>
<path id="_Trazado_compuesto_8" class="st2" d="M137.7,8.4h6.9v7.7c0,0.3,0,0.6,0.1,0.8c0,0.2,0.1,0.4,0.3,0.6
	c0.1,0.1,0.3,0.2,0.4,0.3c0.2,0.1,0.4,0.1,0.6,0.1c0.3,0,0.5,0,0.8-0.2c0.3-0.1,0.5-0.3,0.7-0.5V8.4h6.9V21h-6.1l-0.6-1.8
	c-0.7,0.7-1.6,1.3-2.5,1.6c-0.9,0.3-1.8,0.5-2.7,0.5c-1.3,0.1-2.6-0.4-3.6-1.2c-0.9-1.1-1.4-2.4-1.3-3.8L137.7,8.4L137.7,8.4z"/>
<path id="_Trazado_compuesto_9" class="st2" d="M156.6,8.4h6.1l0.6,1.8c0.8-0.6,1.8-1.2,2.7-1.6c0.9-0.3,1.9-0.5,2.9-0.5
	c0.7,0,1.4,0.2,2.1,0.5c0.6,0.4,1.2,0.9,1.5,1.6c0.4-0.3,0.8-0.6,1.3-0.8c0.5-0.3,0.9-0.5,1.4-0.7c0.5-0.2,1-0.4,1.5-0.5
	c0.5-0.1,1.1-0.2,1.7-0.2c0.6,0,1.1,0.1,1.6,0.3c0.5,0.2,1,0.5,1.3,0.9c0.4,0.5,0.7,1,0.9,1.6c0.2,0.7,0.3,1.5,0.3,2.3V21h-6.9v-8.2
	c0-0.4-0.1-0.7-0.3-1c-0.2-0.2-0.5-0.3-0.9-0.3c-0.2,0-0.4,0-0.7,0.1c-0.3,0.1-0.5,0.2-0.8,0.4v9h-6.9v-8.2c0-0.4-0.1-0.7-0.3-1
	c-0.2-0.2-0.5-0.3-0.9-0.3c-0.3,0-0.6,0.1-0.8,0.2c-0.3,0.1-0.5,0.3-0.8,0.5V21h-6.9L156.6,8.4L156.6,8.4z"/>
<path id="_Trazado_compuesto_10" class="st2" d="M183.9,17c0-0.6,0.1-1.2,0.4-1.7c0.3-0.5,0.7-1,1.2-1.4c0.6-0.4,1.2-0.7,1.8-0.9
	c0.8-0.2,1.6-0.3,2.4-0.3c0.8,0,1.7,0.1,2.5,0.3c0.7,0.2,1.3,0.4,1.9,0.8v-0.1c0-0.5-0.1-1-0.2-1.5c-0.2-0.8-0.8-1.4-1.6-1.6
	c-0.5-0.1-1-0.2-1.5-0.2c-0.5,0-1.1,0-1.6,0.1c-0.5,0.1-1,0.2-1.5,0.4l-0.9-1.7c0.9-0.4,1.9-0.7,2.9-0.8c1-0.2,2.1-0.2,3.1-0.2
	c1.2,0,2.4,0.1,3.6,0.4c0.9,0.2,1.8,0.6,2.6,1.2c0.7,0.5,1.2,1.2,1.6,1.9c0.4,0.9,0.6,1.8,0.6,2.7V21h-6.4l-0.4-1.2
	c-0.3,0.2-0.6,0.4-0.9,0.6c-0.4,0.2-0.7,0.3-1.1,0.5c-0.4,0.1-0.9,0.2-1.3,0.3c-0.5,0.1-1,0.1-1.5,0.1c-0.8,0-1.5-0.1-2.3-0.3
	c-0.6-0.2-1.2-0.5-1.7-0.9c-0.5-0.4-0.8-0.8-1.1-1.3C184.1,18.2,183.9,17.6,183.9,17z M191,16.7c0,0.4,0.1,0.8,0.4,1.1
	c0.3,0.3,0.8,0.5,1.2,0.4c0.3,0,0.5,0,0.8-0.1c0.3-0.1,0.5-0.2,0.7-0.4v-2.2c-0.4-0.3-0.9-0.4-1.4-0.4c-0.5,0-0.9,0.1-1.3,0.4
	C191.2,15.9,191,16.3,191,16.7L191,16.7z"/>
<path id="_Trazado_compuesto_11" class="st2" d="M203.2,8.4h6.1l0.6,1.8c0.8-0.6,1.8-1.2,2.7-1.6c0.9-0.3,1.9-0.5,2.9-0.5
	c0.6,0,1.1,0.1,1.6,0.3c0.5,0.2,0.9,0.5,1.3,0.9c0.4,0.5,0.7,1,0.9,1.6c0.2,0.7,0.3,1.5,0.3,2.3V21h-6.9v-8.2c0-0.4-0.1-0.7-0.3-1
	c-0.2-0.2-0.5-0.3-0.9-0.3c-0.3,0-0.6,0.1-0.8,0.2c-0.3,0.1-0.5,0.3-0.8,0.5v8.8h-6.9L203.2,8.4L203.2,8.4z"/>
<path id="_Trazado_compuesto_12" class="st2" d="M221.7,8.4h6.1l0.6,1.8c0.8-0.6,1.8-1.2,2.7-1.6c0.9-0.3,1.9-0.5,2.9-0.5
	c0.6,0,1.1,0.1,1.6,0.3c0.5,0.2,0.9,0.5,1.3,0.9c0.4,0.5,0.7,1,0.9,1.6c0.2,0.7,0.3,1.5,0.3,2.3V21h-6.9v-8.2c0-0.4-0.1-0.7-0.3-1
	c-0.2-0.2-0.5-0.3-0.9-0.3c-0.3,0-0.6,0.1-0.8,0.2c-0.3,0.1-0.5,0.3-0.8,0.5v8.8h-6.9L221.7,8.4L221.7,8.4z"/>
<path class="st1" d="M207.6,26.2h0.8v4.8h1.8v0.8h-2.6L207.6,26.2L207.6,26.2z"/>
<path class="st1" d="M212,26.2h0.7v5.6H212L212,26.2L212,26.2z"/>
<path class="st1" d="M215.2,26.2h0.9c0.5,0,1,0.1,1.4,0.4c0.4,0.2,0.6,0.6,0.5,1c0,0.5-0.3,1-0.8,1.2c0.7,0.1,1.2,0.7,1.3,1.5
	c0,0.5-0.2,0.9-0.6,1.2c-0.5,0.3-1.1,0.5-1.8,0.4h-0.9L215.2,26.2L215.2,26.2z M216,26.9v1.7c0.3,0,0.7-0.1,1-0.2
	c0.2-0.1,0.3-0.4,0.3-0.6c0-0.2-0.1-0.4-0.3-0.6c-0.2-0.2-0.5-0.2-0.8-0.2L216,26.9L216,26.9z M216,29.2v1.9h0.1
	c0.5,0,0.9-0.1,1.4-0.3c0.2-0.2,0.3-0.4,0.4-0.7c0-0.3-0.2-0.5-0.4-0.7c-0.3-0.2-0.7-0.3-1.1-0.3C216.2,29.2,216,29.2,216,29.2z"/>
<path class="st1" d="M220.8,26.2h1.2c0.5,0,1,0.1,1.5,0.4c0.4,0.3,0.6,0.7,0.6,1.2c0,0.4-0.1,0.7-0.4,1c-0.3,0.3-0.7,0.5-1.1,0.6
	l1.6,2.4h-0.9l-1.5-2.3h-0.2v2.3h-0.8V26.2z M221.5,26.9v2c1.1,0,1.7-0.3,1.7-1c0-0.2-0.1-0.4-0.2-0.6c-0.1-0.2-0.3-0.3-0.5-0.3
	C222.2,27,221.9,26.9,221.5,26.9L221.5,26.9z"/>
<path class="st1" d="M226,29c0-0.8,0.3-1.5,0.9-2.1c0.6-0.6,1.4-0.9,2.2-0.9c0.8,0,1.6,0.3,2.2,0.9c0.6,0.5,0.9,1.3,0.9,2.1
	c0,0.8-0.3,1.6-0.9,2.2c-1.2,1.2-3.2,1.2-4.4,0C226.3,30.6,226,29.8,226,29z M231.4,29c0-0.6-0.2-1.2-0.7-1.6
	c-0.4-0.4-1-0.6-1.6-0.6c-0.6,0-1.2,0.2-1.6,0.7c-0.4,0.4-0.7,1-0.7,1.6c0,0.6,0.2,1.2,0.7,1.6c0.4,0.4,1,0.6,1.7,0.6
	c0.6,0,1.2-0.2,1.6-0.7C231.1,30.2,231.4,29.6,231.4,29L231.4,29z"/>
<path class="st1" d="M237.7,26.8l-0.6,0.5c-0.1-0.1-0.3-0.3-0.5-0.4c-0.2-0.1-0.4-0.1-0.6-0.1c-0.2,0-0.5,0.1-0.7,0.2
	c-0.2,0.1-0.3,0.3-0.3,0.5c0,0.2,0.1,0.3,0.2,0.4c0.2,0.2,0.5,0.3,0.8,0.4c0.3,0.1,0.6,0.3,0.8,0.4c0.2,0.1,0.4,0.3,0.5,0.4
	c0.1,0.2,0.2,0.3,0.3,0.5c0.1,0.2,0.1,0.4,0.1,0.6c0,0.5-0.2,0.9-0.5,1.2c-0.3,0.3-0.8,0.5-1.2,0.5c-0.4,0-0.9-0.1-1.2-0.4
	c-0.4-0.3-0.7-0.7-0.8-1.2l0.8-0.2c0.2,0.6,0.7,0.9,1.3,0.9c0.3,0,0.5-0.1,0.7-0.3c0.2-0.2,0.3-0.4,0.3-0.6c0-0.2-0.1-0.3-0.1-0.5
	c-0.1-0.1-0.2-0.3-0.4-0.4c-0.2-0.1-0.4-0.3-0.7-0.3c-0.2-0.1-0.5-0.2-0.7-0.3c-0.2-0.1-0.3-0.2-0.4-0.4c-0.1-0.1-0.2-0.3-0.3-0.4
	c-0.1-0.1-0.1-0.3-0.1-0.5c0-0.4,0.2-0.8,0.5-1c0.3-0.3,0.7-0.4,1.2-0.4c0.3,0,0.6,0.1,0.9,0.2C237.2,26.4,237.5,26.6,237.7,26.8z"
	/>
</svg>
